<svg width="77" height="77" viewBox="0 0 77 77" fill="none" xmlns="http://www.w3.org/2000/svg">
<g opacity="0.85" clip-path="url(#clip0_199_252)">
<path fill-rule="evenodd" clip-rule="evenodd" d="M12.449 0H64.5323C67.8341 0.00494292 70.9997 1.31752 73.3362 3.65055C75.6728 5.98358 76.9901 9.14711 77 12.449V64.5323C76.9901 67.8359 75.6734 71.0013 73.3374 73.3374C71.0013 75.6734 67.8359 76.9901 64.5323 77H12.449C9.14711 76.9901 5.98358 75.6728 3.65055 73.3362C1.31752 70.9997 0.00494292 67.8341 0 64.5323L0 12.449C0.00989103 9.15035 1.32465 5.98965 3.65715 3.65715C5.98965 1.32465 9.15035 0.00989103 12.449 0V0Z" fill="#EDF3FA"/>
<path d="M20.3609 13.78H57.8578V63.201H19.2172V13.78H20.3609ZM55.4767 16.0861H21.5233V60.9137H55.4767V16.0861Z" fill="#1992F8"/>
<path fill-rule="evenodd" clip-rule="evenodd" d="M28.3477 22.5732H49.9834V25.2355H28.3477V22.5732Z" fill="#1992F8"/>
<path fill-rule="evenodd" clip-rule="evenodd" d="M28.3665 28.8164H50.0397V31.4787H28.3665V28.8164Z" fill="#1992F8"/>
<path fill-rule="evenodd" clip-rule="evenodd" d="M42.3716 35.6221L43.6465 37.1407L45.3713 36.147L46.0463 38.0219L48.0148 37.6469V39.6342L49.9834 39.9717L49.2897 41.8466L51.0333 42.8215L49.721 44.3401L51.0333 45.8587L49.2897 46.8337L49.9834 48.7085L48.0148 49.0272V50.9958L46.0463 50.6209L45.3713 52.4957L43.6465 51.502L42.3716 53.0207L41.0967 51.502L39.3718 52.4957L38.6969 50.6209L36.7283 50.9771V49.0085L34.7597 48.746L35.4534 46.8712L33.7473 45.84L35.0409 44.3214L33.7473 42.8027L35.4721 41.8278L34.7784 39.953L36.7658 39.6155V37.6282L38.7343 38.0031L39.4093 36.1283L41.1342 37.1219L42.3716 35.6221ZM45.4088 38.7531C46.5109 39.3591 47.4084 40.2784 47.9877 41.3947C48.5671 42.511 48.8022 43.7742 48.6633 45.0242C48.5244 46.2742 48.0178 47.4549 47.2076 48.4168C46.3974 49.3788 45.32 50.0787 44.1118 50.428C42.9036 50.7774 41.6189 50.7604 40.4203 50.3792C39.2218 49.9981 38.1632 49.2699 37.3787 48.2869C36.5942 47.3038 36.119 46.1102 36.0132 44.8569C35.9074 43.6037 36.1759 42.3472 36.7845 41.2466C37.1812 40.5108 37.7195 39.8607 38.3685 39.3338C39.0175 38.8069 39.7643 38.4137 40.5659 38.1767C41.3676 37.9397 42.2082 37.8636 43.0393 37.9529C43.8705 38.0421 44.6758 38.295 45.4088 38.6968V38.7531ZM44.5839 40.2717C45.389 40.7075 46.0469 41.3723 46.4744 42.1819C46.9019 42.9916 47.0798 43.9098 46.9857 44.8205C46.8915 45.7312 46.5295 46.5935 45.9454 47.2986C45.3612 48.0036 44.5812 48.5197 43.7039 48.7816C42.8266 49.0434 41.8914 49.0394 41.0164 48.7699C40.1413 48.5004 39.3658 47.9776 38.7879 47.2676C38.2099 46.5575 37.8553 45.692 37.7691 44.7805C37.6828 43.8691 37.8686 42.9524 38.3031 42.1465C38.5902 41.6089 38.981 41.1334 39.4529 40.7477C39.9248 40.362 40.4685 40.0736 41.0525 39.8993C41.6365 39.7249 42.2493 39.6681 42.8555 39.732C43.4616 39.7959 44.0491 39.9794 44.5839 40.2717Z" fill="#1992F8"/>
<path fill-rule="evenodd" clip-rule="evenodd" d="M33.1848 55.4393L37.0283 55.1018L38.7156 58.4578L41.6404 53.1895L41.0029 52.4021L38.9593 53.5457L38.2469 51.4271L36.0158 51.7834L36.0533 50.2085L33.1848 55.4393Z" fill="#1992F8"/>
<path fill-rule="evenodd" clip-rule="evenodd" d="M51.5021 55.3829L47.6586 55.0455L45.9713 58.4014L43.0465 53.1331L43.684 52.3457L45.7275 53.4893L46.44 51.3895L48.6711 51.727L48.6523 50.1521L51.5021 55.3829Z" fill="#1992F8"/>
</g>
<defs>
<clipPath id="clip0_199_252">
<rect width="77" height="77" fill="white"/>
</clipPath>
</defs>
</svg>
