<svg width="32" height="32" viewBox="0 0 32 32" fill="none" xmlns="http://www.w3.org/2000/svg">
<path d="M-6.10352e-05 16C-6.10352e-05 19.1645 0.938323 22.2579 2.69643 24.8891C4.45453 27.5203 6.95339 29.5711 9.877 30.7821C12.8006 31.9931 16.0177 32.3099 19.1214 31.6926C22.2251 31.0752 25.076 29.5513 27.3136 27.3137C29.5513 25.0761 31.0751 22.2251 31.6925 19.1214C32.3099 16.0177 31.993 12.8007 30.782 9.87706C29.571 6.95345 27.5202 4.45459 24.8891 2.69649C22.2579 0.938384 19.1644 0 15.9999 0C11.7565 0 7.68681 1.68571 4.68623 4.68629C1.68565 7.68687 -6.10352e-05 11.7565 -6.10352e-05 16H-6.10352e-05ZM17.803 9.90923L23.023 15.1277C23.1379 15.2421 23.2291 15.378 23.2913 15.5277C23.3535 15.6774 23.3855 15.8379 23.3855 16C23.3855 16.1621 23.3535 16.3226 23.2913 16.4723C23.2291 16.622 23.1379 16.7579 23.023 16.8723L17.803 22.0908C17.5703 22.3118 17.2605 22.4333 16.9395 22.4292C16.6186 22.425 16.312 22.2957 16.085 22.0688C15.8581 21.8418 15.7287 21.5352 15.7246 21.2142C15.7205 20.8933 15.8419 20.5835 16.063 20.3508L19.183 17.2308H9.84609C9.51967 17.2308 9.20662 17.1011 8.97581 16.8703C8.74499 16.6395 8.61532 16.3264 8.61532 16C8.61532 15.6736 8.74499 15.3605 8.97581 15.1297C9.20662 14.8989 9.51967 14.7692 9.84609 14.7692H19.183L16.063 11.6492C15.8419 11.4165 15.7205 11.1067 15.7246 10.7858C15.7287 10.4648 15.8581 10.1582 16.085 9.93123C16.312 9.70427 16.6186 9.57495 16.9395 9.57084C17.2605 9.56674 17.5703 9.68816 17.803 9.90923Z" fill="#1992F8"/>
</svg>
