<svg width="106" height="99" viewBox="0 0 106 99" fill="none" xmlns="http://www.w3.org/2000/svg">
<g clip-path="url(#clip0_267_266)">
<path d="M39.261 51.8289C43.1191 47.5141 46.8378 43.207 50.7125 39.0474C65.1219 23.5793 81.7266 10.9849 100.19 0.846748C102.461 -0.400283 104.074 -0.265686 105.215 1.22257C106.493 2.88947 106.225 4.46198 104.307 6.37885C93.4208 17.262 82.3397 27.9553 71.6972 39.0751C61.4954 49.7348 52.5469 61.4552 44.8554 74.1139C42.6995 77.662 40.6786 77.8351 37.9968 74.6911C30.5869 66.0049 23.1893 57.3086 15.804 48.6021C13.5396 45.9321 13.6034 43.0811 15.9021 40.5927C18.2466 38.0546 21.3286 37.6253 23.9962 39.6935C28.4899 43.1776 32.8876 46.7876 37.3292 50.3403C37.9943 50.8727 38.6792 51.3814 39.261 51.8289Z" fill="white" fill-opacity="0.9"/>
<path d="M73.136 13.2224C69.7848 15.828 67.3131 18.2217 62.8669 18.1169C47.3192 17.7599 31.7586 17.9721 16.2028 17.9844C9.28837 17.99 5.01106 22.2995 5.00793 29.2478C5.00007 47.0309 4.99938 64.814 5.00585 82.5971C5.00897 89.4494 9.28455 93.7844 16.0308 93.7869C33.7469 93.7943 51.4632 93.7943 69.1797 93.7869C75.9843 93.7841 80.1867 89.5353 80.1929 82.6419C80.2064 68.1991 80.255 53.756 80.1503 39.3143C80.1336 37.0181 80.6316 35.2753 82.4001 33.8227C83.277 33.1022 83.9459 32.1247 85.0732 30.8532C85.1946 31.9576 85.2997 32.4701 85.3 32.9823C85.3074 49.6774 85.3055 66.3727 85.2941 83.0681C85.2768 91.9322 78.7937 98.8204 69.9933 98.8911C51.7744 99.0374 33.5547 99.0399 15.3342 98.8984C6.3988 98.8355 0.0585974 92.0609 0.0221874 82.9121C-0.0228917 71.585 0.0145586 60.2579 0.0152522 48.9308C0.0152522 42.3349 0.00172843 35.7389 0.0152522 29.1433C0.0346708 19.5506 6.44977 12.9183 15.9476 12.8833C33.7365 12.8179 51.5254 12.8588 69.3122 12.8777C70.4208 12.8788 71.5287 13.0721 73.136 13.2224Z" fill="white" fill-opacity="0.9"/>
</g>
<defs>
<clipPath id="clip0_267_266">
<rect width="106" height="99" fill="white"/>
</clipPath>
</defs>
</svg>
