<svg width="21" height="23" viewBox="0 0 21 23" fill="none" xmlns="http://www.w3.org/2000/svg">
<g clip-path="url(#clip0_150_40)">
<path d="M16.7579 10.4939L15.8056 10.2364L15.8204 10.3059L15.7909 10.299L15.8524 10.5814L11.3411 11.6645C11.2727 11.498 11.1573 11.3546 11.0088 11.2514C10.8603 11.1482 10.685 11.0896 10.5038 11.0827C10.3226 11.0757 10.1432 11.1206 9.98704 11.2121C9.83092 11.3036 9.7047 11.4377 9.62347 11.5984L5.15284 10.3969L5.22124 10.1154L5.19267 10.1223L5.20912 10.0527L4.2421 10.2827L4.29664 10.3351L4.25422 10.3454L4.99009 11.0397L5.07666 10.6964L9.52997 11.898C9.501 12.1351 9.56473 12.3743 9.70807 12.5663C9.85142 12.7583 10.0635 12.8886 10.3007 12.9305C10.538 12.9723 10.7824 12.9226 10.9838 12.7913C11.1851 12.6601 11.3282 12.4574 11.3835 12.2249C11.4032 12.1406 11.4107 12.0539 11.406 11.9675L15.9156 10.8827L15.99 11.226L16.7458 10.5522L16.7034 10.5411L16.7579 10.4939Z" fill="white"/>
<path d="M17.3295 19.967C18.5384 18.9428 19.4964 17.6593 20.1308 16.2137C20.7653 14.7681 21.0596 13.1983 20.9914 11.6232C20.9233 10.0482 20.4945 8.50913 19.7375 7.12269C18.9805 5.73626 17.9151 4.53878 16.6222 3.62096L16.6698 3.56689L17.087 3.04164C18.7536 4.16508 19.3691 5.07825 20.4928 6.50293C20.9906 4.43285 20.6019 2.07097 18.4341 0.71152C16.3382 -0.600731 13.7938 0.0858622 12.1204 1.2874C13.2978 1.37322 15.3365 1.9431 16.597 2.71895L16.1728 3.25191C15.7579 3.00935 15.327 2.79487 14.8829 2.60995C13.585 2.01809 12.1782 1.69676 10.7499 1.66588V1.55002C11.2789 1.53286 11.6555 1.4642 11.6555 1.37322V1.07971C11.6555 1.07971 11.6555 1.06254 11.6555 1.05653C11.6555 0.936379 11.136 0.835106 10.504 0.835106C9.87206 0.835106 9.35782 0.931229 9.35782 1.05138C9.35782 1.06254 9.37427 1.07112 9.37427 1.08142V1.35778C9.37427 1.44875 9.7448 1.52942 10.2209 1.54916V1.66846C8.15748 1.72005 6.15579 2.37712 4.46904 3.55659L4.01021 2.97213C4.12362 2.8966 4.24568 2.82108 4.36948 2.74298C5.62739 1.95854 7.69388 1.37923 8.88253 1.2874C7.20561 0.0858622 4.66123 -0.600731 2.5679 0.71152C0.399249 2.07097 0.011402 4.43285 0.509196 6.50293C1.54201 5.19325 2.14543 4.31613 3.53146 3.30942L4.00328 3.90246C2.78364 4.85197 1.79187 6.05809 1.09956 7.43375C0.407257 8.80941 0.0316874 10.3203 -3.55746e-05 11.8573C-0.0317585 13.3944 0.281157 14.9192 0.916123 16.3218C1.55109 17.7244 2.49226 18.9697 3.67171 19.9679L2.06232 22.1306C1.97574 22.2499 2.03201 22.4422 2.19217 22.5598L2.67612 22.9151C2.83714 23.0318 3.03886 23.0309 3.12803 22.9108L4.72703 20.7592C6.4399 21.8807 8.4474 22.4786 10.5001 22.4786C12.5529 22.4786 14.5604 21.8807 16.2733 20.7592L17.8723 22.9091C17.9588 23.0292 18.1632 23.0301 18.3233 22.9134L18.8081 22.5589C18.9683 22.4413 19.0263 22.2499 18.938 22.1298L17.3295 19.967ZM1.31346 12.0712C1.31312 10.2696 1.85174 8.50828 2.86119 7.01013C3.87065 5.51198 5.3056 4.34426 6.98456 3.65464C8.66351 2.96503 10.5111 2.7845 12.2935 3.1359C14.076 3.4873 15.7133 4.35484 16.9983 5.62879C18.2834 6.90274 19.1585 8.52588 19.513 10.2929C19.8674 12.06 19.6853 13.8915 18.9897 15.5559C18.2941 17.2204 17.1162 18.6429 15.6049 19.6436C14.0937 20.6444 12.3171 21.1783 10.4997 21.178C8.06405 21.175 5.729 20.2145 4.00673 18.5072C2.28445 16.7998 1.31557 14.4849 1.31259 12.0703L1.31346 12.0712Z" fill="white"/>
</g>
<defs>
<clipPath id="clip0_150_40">
<rect width="21" height="23" fill="white"/>
</clipPath>
</defs>
</svg>
