<svg width="77" height="77" viewBox="0 0 77 77" fill="none" xmlns="http://www.w3.org/2000/svg">
<g opacity="0.85" clip-path="url(#clip0_198_246)">
<path fill-rule="evenodd" clip-rule="evenodd" d="M12.449 0H64.5323C67.8341 0.00494292 70.9997 1.31752 73.3362 3.65055C75.6728 5.98358 76.9901 9.14711 77 12.449V64.5323C76.9901 67.8359 75.6734 71.0013 73.3374 73.3374C71.0013 75.6734 67.8359 76.9901 64.5323 77H12.449C9.14711 76.9901 5.98358 75.6728 3.65055 73.3362C1.31752 70.9997 0.00494292 67.8341 0 64.5323L0 12.449C0.00989103 9.15035 1.32465 5.98965 3.65715 3.65715C5.98965 1.32465 9.15035 0.00989103 12.449 0V0Z" fill="#EDF3FA"/>
<path fill-rule="evenodd" clip-rule="evenodd" d="M42.1278 8.77417C30.8788 8.77417 21.617 15.0362 21.617 22.7793C21.7073 24.6897 22.253 26.5509 23.2086 28.2076C24.1641 29.8644 25.5019 31.2687 27.1103 32.3035L22.8919 43.2901L34.4035 35.7907C36.9216 36.4711 39.5194 36.8116 42.1278 36.8031C53.4707 36.8031 62.7512 30.5412 62.7512 22.8168C62.7512 15.0924 53.5644 8.81167 42.1278 8.81167V8.77417ZM50.7896 20.9982C50.467 20.9982 50.1517 21.0938 49.8834 21.2731C49.6152 21.4523 49.4061 21.707 49.2827 22.0051C49.1592 22.3031 49.1269 22.6311 49.1899 22.9475C49.2528 23.2639 49.4081 23.5546 49.6363 23.7827C49.8644 24.0108 50.155 24.1661 50.4714 24.2291C50.7878 24.292 51.1158 24.2597 51.4138 24.1363C51.7119 24.0128 51.9666 23.8037 52.1459 23.5355C52.3251 23.2673 52.4208 22.9519 52.4208 22.6293C52.4208 22.1967 52.2489 21.7818 51.943 21.4759C51.6371 21.17 51.2222 20.9982 50.7896 20.9982ZM42.1466 20.9982C41.824 20.9982 41.5086 21.0938 41.2404 21.2731C40.9722 21.4523 40.7631 21.707 40.6396 22.0051C40.5162 22.3031 40.4839 22.6311 40.5468 22.9475C40.6097 23.2639 40.7651 23.5546 40.9932 23.7827C41.2213 24.0108 41.512 24.1661 41.8284 24.2291C42.1448 24.292 42.4727 24.2597 42.7708 24.1363C43.0688 24.0128 43.3236 23.8037 43.5028 23.5355C43.682 23.2673 43.7777 22.9519 43.7777 22.6293C43.7777 22.4151 43.7355 22.203 43.6535 22.0051C43.5716 21.8072 43.4514 21.6274 43.3 21.4759C43.1485 21.3245 42.9687 21.2043 42.7708 21.1223C42.5729 21.0404 42.3608 20.9982 42.1466 20.9982ZM33.4848 20.9982C33.1622 20.9982 32.8468 21.0938 32.5786 21.2731C32.3104 21.4523 32.1013 21.707 31.9778 22.0051C31.8544 22.3031 31.8221 22.6311 31.885 22.9475C31.948 23.2639 32.1033 23.5546 32.3314 23.7827C32.5595 24.0108 32.8502 24.1661 33.1666 24.2291C33.483 24.292 33.8109 24.2597 34.109 24.1363C34.407 24.0128 34.6618 23.8037 34.841 23.5355C35.0202 23.2673 35.1159 22.9519 35.1159 22.6293C35.1159 22.1967 34.9441 21.7818 34.6382 21.4759C34.3323 21.17 33.9174 20.9982 33.4848 20.9982Z" fill="#1992F8"/>
<path fill-rule="evenodd" clip-rule="evenodd" d="M17.6235 40.2529C6.24321 51.577 31.4599 77.1499 43.1215 65.6196C41.7375 62.8204 39.4712 60.5541 36.672 59.1701L34.5159 61.345C32.3598 63.4823 19.8171 51.0896 22.0107 48.8585L24.1855 46.6837C22.5262 44.0604 20.2797 41.8589 17.6235 40.2529Z" fill="#1992F8"/>
</g>
<defs>
<clipPath id="clip0_198_246">
<rect width="77" height="77" fill="white"/>
</clipPath>
</defs>
</svg>
