<svg width="76" height="76" viewBox="0 0 76 76" fill="none" xmlns="http://www.w3.org/2000/svg">
<g clip-path="url(#clip0_194_162)">
<g opacity="0.85">
<path fill-rule="evenodd" clip-rule="evenodd" d="M12.2873 0H63.6942C66.9532 0.00487872 70.0776 1.30041 72.3838 3.60314C74.69 5.90587 75.9902 9.02832 76 12.2873V63.6942C75.9902 66.9549 74.6906 70.0792 72.3849 72.3849C70.0792 74.6906 66.9549 75.9902 63.6942 76H12.2873C9.02832 75.9902 5.90587 74.69 3.60314 72.3838C1.30041 70.0776 0.00487872 66.9532 0 63.6942L0 12.2873C0.00976257 9.03152 1.30745 5.91186 3.60966 3.60966C5.91186 1.30745 9.03152 0.00976257 12.2873 0V0Z" fill="#ECF3FB"/>
<path fill-rule="evenodd" clip-rule="evenodd" d="M23.89 31.8655C30.0706 31.8655 32.2912 35.8996 31.7731 41.118C31.2549 46.3364 27.85 50.3705 23.89 50.2779C19.9299 50.1854 16.488 46.2809 16.0253 41.118C15.5627 35.9551 17.7278 31.8655 23.89 31.8655Z" fill="#1992F8"/>
<path fill-rule="evenodd" clip-rule="evenodd" d="M7.95715 67.4322C9.80765 58.9939 14.1008 54.0716 19.0602 52.1656L23.8714 66.618L28.7568 52.0916C33.7531 53.9421 38.1203 58.9384 39.9708 67.4322H7.95715Z" fill="#1992F8"/>
<path fill-rule="evenodd" clip-rule="evenodd" d="M21.8544 51.7585H25.87L25.1853 54.9414H22.5761L21.8544 51.7585Z" fill="#1992F8"/>
<path fill-rule="evenodd" clip-rule="evenodd" d="M21.9469 58.8829L23.8714 64.4159L25.7959 58.9014L25.1853 56.0146H22.5761L21.9469 58.8829Z" fill="#1992F8"/>
<path fill-rule="evenodd" clip-rule="evenodd" d="M67.2841 53.9421C65.2056 53.0781 63.0492 52.4151 60.8444 51.962L60.6223 52.0916L55.6815 48.9272C52.7775 47.9899 49.683 47.8053 46.6881 48.3906C44.7402 48.807 42.908 49.6473 41.3216 50.8517L38.6939 51.1663C38.2313 51.4439 38.3978 52.8688 38.2498 53.72L37.6761 54.2752C37.528 55.1968 37.6501 56.1417 38.0277 56.9954L40.8775 57.5135C40.8684 57.6244 40.8684 57.7358 40.8775 57.8466C40.8775 58.5435 41.1544 59.2119 41.6471 59.7047C42.1399 60.1975 42.8083 60.4743 43.5052 60.4743C43.8454 60.4792 44.1833 60.4171 44.4995 60.2914C44.8157 60.1657 45.104 59.9789 45.348 59.7418C45.592 59.5047 45.7869 59.2218 45.9216 58.9093C46.0563 58.5968 46.1281 58.2609 46.1329 57.9207L59.4935 58.0872C59.5467 58.73 59.8344 59.3308 60.3018 59.7751C60.7693 60.2195 61.3838 60.4765 62.0285 60.497C62.6731 60.5176 63.3028 60.3004 63.7977 59.8867C64.2925 59.473 64.6179 58.8918 64.7119 58.2537H65.2116C66.1553 58.2537 67.6912 58.2537 68.2464 57.6801C68.4684 57.4765 68.3944 55.6075 68.0798 55.6445L67.3211 53.9236L67.2841 53.9421ZM45.5593 51.3329L51.4809 51.7215L51.1293 48.8902C49.5947 48.7276 48.0438 48.8215 46.54 49.1678C44.486 49.7229 45.1892 50.5742 45.5593 51.3329ZM57.421 52.0731C57.2914 51.4624 57.569 51.3144 57.9946 51.3144L55.515 49.4639C54.4027 49.134 53.2514 48.9535 52.0915 48.9272L52.6652 51.814L57.717 52.3136V52.1471H57.421V52.0731Z" fill="#1992F8"/>
<path d="M37.158 8.73438H64.6564V45.0967H36.3068V8.73438H37.158ZM63.065 10.4183H37.9907V43.3942H62.9169V10.4183H63.065Z" fill="#1992F8"/>
<path fill-rule="evenodd" clip-rule="evenodd" d="M43.0241 15.1926H58.9384V17.1542H43.0241V15.1926Z" fill="#1992F8"/>
<path fill-rule="evenodd" clip-rule="evenodd" d="M43.0426 19.7817H58.9754V21.7433H43.0426V19.7817Z" fill="#1992F8"/>
<path fill-rule="evenodd" clip-rule="evenodd" d="M43.0241 24.4451H58.9569V26.4066H43.0241V24.4451Z" fill="#1992F8"/>
<path fill-rule="evenodd" clip-rule="evenodd" d="M43.0056 29.0344H59.0124V30.996H43.0056V29.0344Z" fill="#1992F8"/>
<path fill-rule="evenodd" clip-rule="evenodd" d="M43.0056 33.6792H59.0124V35.6407H43.0056V33.6792Z" fill="#1992F8"/>
</g>
</g>
<defs>
<clipPath id="clip0_194_162">
<rect width="76" height="76" fill="white"/>
</clipPath>
</defs>
</svg>
