<svg width="23" height="15" viewBox="0 0 23 15" fill="none" xmlns="http://www.w3.org/2000/svg">
<path fill-rule="evenodd" clip-rule="evenodd" d="M11.5007 0H20.9944C22.1625 0 22.9966 0.869528 22.9966 2.09008C22.9966 6.04412 22.9966 9.99873 22.9966 13.9539C22.9966 14.9199 22.3903 15.7361 21.5148 15.9425C21.3344 15.982 21.1504 16.0004 20.9661 15.9975C17.4221 16.0008 13.8784 16.0008 10.335 15.9975C7.53844 15.9975 4.74214 15.9975 1.9461 15.9975C1.46834 16.0026 1.00587 15.8219 0.648886 15.4905C0.291904 15.1591 0.0660075 14.7009 0.0152511 14.2051C-0.00165333 13.9786 -0.00679466 13.7513 -0.000150311 13.5242C-0.000150311 9.70381 -0.000150311 5.88257 -0.000150311 2.06048C0.0039027 0.880524 0.846117 0 1.97691 0H11.5007ZM11.5104 10.2017C11.5525 10.1654 11.5914 10.1349 11.6247 10.1028L14.735 7.28949C16.7463 5.47036 18.7585 3.65038 20.7715 1.82956C20.9257 1.67606 21.0718 1.51399 21.2092 1.34405H1.77588C1.90395 1.54113 11.1416 9.94629 11.5104 10.2017ZM1.74994 14.6069L1.78398 14.6661H5.44142C10.6082 14.6661 15.7744 14.6661 20.9401 14.6661C21.035 14.6606 21.1294 14.6493 21.223 14.6323L21.2449 14.5841C18.9922 12.516 16.7055 10.4885 14.444 8.42969C14.4026 8.46521 14.3759 8.48551 14.3515 8.50835C13.4869 9.29273 12.6223 10.0768 11.7576 10.8606C11.5704 11.0298 11.4277 11.0298 11.2453 10.8666L8.6514 8.51427C8.62059 8.48721 8.58655 8.46352 8.54926 8.42969L1.74994 14.6069ZM1.30086 1.89046V14.1129L8.07263 8L1.30086 1.89046ZM14.9279 8L21.694 14.1011V1.86932L14.9279 8Z" fill="white"/>
</svg>
