<svg width="77" height="77" viewBox="0 0 77 77" fill="none" xmlns="http://www.w3.org/2000/svg">
<g opacity="0.85">
<path fill-rule="evenodd" clip-rule="evenodd" d="M12.449 0H64.5323C67.8341 0.00494292 70.9997 1.31752 73.3362 3.65055C75.6728 5.98358 76.9901 9.14711 77 12.449V64.5323C76.9901 67.8359 75.6734 71.0013 73.3374 73.3374C71.0013 75.6734 67.8359 76.9901 64.5323 77H12.449C9.14711 76.9901 5.98358 75.6728 3.65055 73.3362C1.31752 70.9997 0.00494292 67.8341 0 64.5323L0 12.449C0.00989103 9.15035 1.32465 5.98965 3.65715 3.65715C5.98965 1.32465 9.15035 0.00989103 12.449 0V0Z" fill="#EDF3FA"/>
<path fill-rule="evenodd" clip-rule="evenodd" d="M38.2656 8.45557C48.4461 8.45557 52.1208 15.1113 51.2583 23.5668C50.3959 32.0224 44.7901 38.7906 38.2656 38.6594C31.7412 38.5281 25.9666 32.0786 25.2729 23.6606C24.5793 15.2425 28.1227 8.45557 38.2656 8.45557Z" fill="#1992F8"/>
<path fill-rule="evenodd" clip-rule="evenodd" d="M11.9615 67.1383C14.9988 53.1894 22.1045 45.0901 30.1663 41.9216L38.2282 65.7696L46.2713 41.8091C54.5206 44.9026 61.7388 53.0582 64.7948 67.1383H11.9615Z" fill="#1992F8"/>
<path fill-rule="evenodd" clip-rule="evenodd" d="M34.8909 41.2654H41.5091L40.3842 46.515H36.0721L34.8909 41.2654Z" fill="#1992F8"/>
<path fill-rule="evenodd" clip-rule="evenodd" d="M35.0409 53.002L38.2281 62.17L41.3966 53.0582L40.3842 48.2773H36.0721L35.0409 53.002Z" fill="#1992F8"/>
</g>
</svg>
