<svg width="17" height="12" viewBox="0 0 17 12" fill="none" xmlns="http://www.w3.org/2000/svg">
<path fill-rule="evenodd" clip-rule="evenodd" d="M8.40051 0.75H15.3351C16.1883 0.75 16.7975 1.40215 16.7975 2.31756C16.7975 5.28309 16.7975 8.24905 16.7975 11.2154C16.7975 11.9399 16.3547 12.5521 15.7152 12.7069C15.5834 12.7365 15.449 12.7503 15.3144 12.7481C12.7257 12.7506 10.1373 12.7506 7.54908 12.7481C5.50637 12.7481 3.46385 12.7481 1.42153 12.7481C1.07255 12.7519 0.734747 12.6164 0.473995 12.3679C0.213243 12.1193 0.0482402 11.7756 0.0111659 11.4038C-0.00118165 11.234 -0.00493705 11.0635 -8.37862e-05 10.8932C-8.37862e-05 8.02786 -8.37862e-05 5.16193 -8.37862e-05 2.29536C0.00287667 1.41039 0.61806 0.75 1.44403 0.75H8.40051ZM8.40761 8.4013C8.4384 8.37402 8.46682 8.35118 8.4911 8.32708L10.763 6.21712C12.2321 4.85277 13.7019 3.48779 15.1723 2.12217C15.2849 2.00704 15.3916 1.88549 15.492 1.75804H1.29719C1.39074 1.90585 8.13821 8.20972 8.40761 8.4013ZM1.27824 11.7052L1.30311 11.7496H3.97463C7.74862 11.7496 11.5222 11.7496 15.2954 11.7496C15.3647 11.7455 15.4337 11.737 15.5021 11.7242L15.518 11.688C13.8726 10.137 12.2023 8.61636 10.5504 7.07227C10.5202 7.09891 10.5007 7.11414 10.4829 7.13126C9.85133 7.71955 9.21977 8.30762 8.5882 8.89548C8.45143 9.02236 8.34722 9.02236 8.214 8.89993L6.31931 7.1357C6.29681 7.11541 6.27194 7.09764 6.2447 7.07227L1.27824 11.7052ZM0.950223 2.16785V11.3347L5.89655 6.75L0.950223 2.16785ZM10.9039 6.75L15.8461 11.3258V2.15199L10.9039 6.75Z" fill="white"/>
</svg>
