<svg width="12" height="17" viewBox="0 0 12 17" fill="none" xmlns="http://www.w3.org/2000/svg">
<path d="M5.24396 4.16644C5.24809 4.15367 5.3618 3.77187 4.95348 3.22046C4.54515 2.66905 4.17394 2.68425 4.15804 2.68485L4.12445 2.28664C4.14861 2.28664 4.7225 2.24226 5.26576 2.98093C5.80902 3.71959 5.61929 4.27648 5.61281 4.30019L5.24396 4.16644Z" fill="white"/>
<path d="M6.20206 4.18626C6.20972 4.16194 6.39709 3.53149 5.72774 2.62199C5.05839 1.71249 4.4191 1.74046 4.41144 1.74107L4.37903 1.34225C4.41379 1.34225 5.23634 1.28753 6.04121 2.38307C6.84608 3.4786 6.58505 4.28414 6.5715 4.31697L6.20206 4.18626Z" fill="white"/>
<path d="M7.26382 4.12551C7.26382 4.12004 7.38167 3.3297 6.45129 2.06394C5.52092 0.798179 4.77556 0.72644 4.76849 0.72644L4.79147 0.323975C4.83154 0.323975 5.71536 0.397537 6.76535 1.8244C7.81533 3.25127 7.65624 4.16381 7.64917 4.20211L7.26382 4.12551Z" fill="white"/>
<path fill-rule="evenodd" clip-rule="evenodd" d="M0.706988 3.12061C1.66093 4.39731 2.57539 5.61869 3.49693 6.85101C3.12808 7.19998 3.19348 7.61095 3.39381 7.97633C3.74734 8.62502 4.11089 9.281 4.55457 9.86585C5.11668 10.6076 5.75657 11.2872 6.37701 11.9797C6.53257 12.153 6.73467 12.2837 6.92911 12.415C7.01705 12.477 7.11917 12.5141 7.22532 12.5227C7.33147 12.5314 7.43797 12.5112 7.53423 12.4642C7.56585 12.4548 7.59923 12.4536 7.6314 12.4607C7.66357 12.4678 7.69355 12.483 7.71866 12.505C8.58284 13.652 9.44251 14.8026 10.2977 15.9569C10.3071 15.9765 10.315 15.9968 10.3212 16.0177C10.1062 16.2038 9.83866 16.2609 9.57115 16.2962C8.71267 16.4044 7.90839 16.1861 7.13533 15.8214C6.01052 15.29 5.06306 14.5045 4.2087 13.5963C2.82817 12.125 1.65268 10.4993 0.796549 8.64447C0.360529 7.70032 0.0588505 6.71361 0.00699953 5.65942C-0.0254073 4.99797 0.0500123 4.35232 0.332247 3.74984C0.428878 3.54617 0.563809 3.35649 0.706988 3.12061Z" fill="white"/>
<path fill-rule="evenodd" clip-rule="evenodd" d="M0.986877 2.95036C1.35278 2.66888 1.68981 2.39469 2.04157 2.14361C2.27726 1.97459 2.54653 2.04694 2.74451 2.30897C3.16835 2.87031 3.58905 3.43287 4.00661 3.99665C4.2749 4.35291 4.54181 4.70937 4.80735 5.06604C5.06897 5.41865 5.03067 5.68372 4.68244 5.95304L3.76091 6.66313C2.83819 5.43081 1.92196 4.20275 0.986877 2.95036Z" fill="white"/>
<path fill-rule="evenodd" clip-rule="evenodd" d="M10.6005 15.8269L7.88599 12.1908C8.25719 11.9081 8.61013 11.6217 8.98075 11.364C9.07823 11.3004 9.19552 11.2777 9.30871 11.3003C9.42191 11.3228 9.5225 11.3891 9.59 11.4856C10.3088 12.4348 11.022 13.3882 11.7294 14.346C11.802 14.443 11.8351 14.5653 11.8218 14.687C11.8085 14.8088 11.7498 14.9204 11.6581 14.9983C11.3211 15.2798 10.9676 15.5388 10.6005 15.8269Z" fill="white"/>
</svg>
