<svg width="29" height="32" viewBox="0 0 29 32" fill="none" xmlns="http://www.w3.org/2000/svg">
<path fill-rule="evenodd" clip-rule="evenodd" d="M25.5937 0.221557C25.5937 0.221557 24.0878 -0.516425 24.1099 0.701352C24.1319 1.91913 26.8787 1.34682 27.537 4.69248C27.537 4.69248 28.5634 1.84383 25.5937 0.221557Z" fill="#D507D3"/>
<path fill-rule="evenodd" clip-rule="evenodd" d="M10.1815 10.8437C10.512 10.8195 10.8399 10.9189 11.1042 11.1235C11.3684 11.3281 11.551 11.624 11.6179 11.956C11.6955 12.3225 11.6285 12.7054 11.4316 13.0217C11.2347 13.3379 10.9238 13.5619 10.5663 13.645C10.3741 13.687 10.1751 13.6858 9.98337 13.6413C9.79161 13.5968 9.61162 13.5101 9.45592 13.3872C9.30021 13.2644 9.17252 13.1083 9.08171 12.9299C8.9909 12.7515 8.93915 12.555 8.93007 12.354C8.90512 11.9851 9.02196 11.6208 9.2557 11.3387C9.48944 11.0566 9.82161 10.8789 10.1815 10.8437Z" fill="#7C06EC"/>
<path fill-rule="evenodd" clip-rule="evenodd" d="M1.30815 7.57866C1.56997 8.21345 1.97246 8.77729 2.48383 9.22567C3.46911 10.0655 4.71158 10.5243 5.99405 10.522C6.95211 10.5368 7.89645 10.2879 8.72819 9.80121C9.54002 9.32069 10.117 8.57482 10.4591 7.5636C10.7241 6.76752 10.8142 5.78175 10.7294 4.60629H6.02349V6.85036H8.14561C7.91776 7.31653 7.63734 7.63926 7.30433 7.81855C6.97133 7.99785 6.53457 8.08786 5.99405 8.08857C5.2341 8.08857 4.62873 7.83756 4.17795 7.33553C3.72716 6.8335 3.50142 6.15218 3.50072 5.29156C3.50072 4.48545 3.72155 3.81022 4.16322 3.26588C4.60489 2.72153 5.21517 2.44936 5.99405 2.44936C6.41743 2.43361 6.83822 2.52333 7.22021 2.71078C7.56691 2.91074 7.84904 3.20983 8.03204 3.5714H10.5674C10.4219 2.86296 10.1061 2.2028 9.64858 1.65058C9.19104 1.09837 8.60617 0.671516 7.94686 0.408617C7.32189 0.172444 6.66028 0.0539905 5.99405 0.0589898C5.14622 0.0533812 4.30828 0.245425 3.54383 0.620544C2.78458 0.995631 2.14872 1.59053 1.63624 2.40526C1.12377 3.21998 0.867178 4.18817 0.866477 5.30985C0.856407 6.08945 1.00689 6.86248 1.30815 7.57866ZM18.8298 10.3757V9.02127C18.6885 9.03344 18.5474 8.99545 18.4302 8.91369C18.352 8.85315 18.2988 8.7649 18.2809 8.66627C18.2639 8.5138 18.2568 8.36034 18.2598 8.20691V5.94778C18.2598 4.96668 17.9465 4.25989 17.3197 3.82743C16.693 3.39497 15.8668 3.17981 14.8411 3.18196C13.8442 3.18196 12.9752 3.35194 12.2342 3.69188L12.5192 5.45508C13.0029 5.20335 13.6339 5.07712 14.4121 5.0764C15.3992 5.0764 15.8931 5.34356 15.8938 5.87786V6.09301C15.4963 5.83196 14.9838 5.70143 14.3563 5.70143C13.5305 5.70143 12.8704 5.92232 12.3762 6.36411C11.8819 6.80589 11.6541 7.45423 11.6926 8.30911C11.6937 8.61773 11.7629 8.92213 11.8949 9.19965C12.0269 9.47717 12.2183 9.72066 12.455 9.91201C12.9428 10.3195 13.5563 10.5364 14.186 10.5241C14.6385 10.5267 15.0867 10.4352 15.5036 10.2552C15.8914 10.0983 16.2085 9.79964 16.3933 9.41716C16.5075 10.4212 17.3197 10.7418 18.8298 10.3789V10.3757ZM15.5036 8.39087C15.2615 8.54367 14.9826 8.62451 14.6981 8.62431C14.309 8.62431 14.0955 8.45936 14.0577 8.12945C14.01 7.87916 14.0563 7.67942 14.1965 7.53025C14.3611 7.37321 14.5772 7.28494 14.8022 7.28282C15.189 7.25742 15.5723 7.37162 15.8853 7.60555V7.75078C15.8856 7.88311 15.8501 8.01293 15.7827 8.12589C15.7153 8.23885 15.6187 8.33056 15.5036 8.39087ZM22.9457 10.5951C23.7912 10.5951 24.5228 10.3886 25.1404 9.97548C25.4323 9.79352 25.6735 9.53765 25.8405 9.23257C26.0076 8.92748 26.095 8.5835 26.0942 8.2338C26.111 7.91345 26.0526 7.59364 25.9239 7.30111C25.8199 7.06584 25.6666 6.85687 25.4748 6.68899C25.2537 6.52029 25.0042 6.3945 24.7387 6.31785C24.4708 6.22696 24.1971 6.15507 23.9195 6.10269C23.6913 6.06397 23.3822 6.02416 22.9931 5.98543C22.9549 5.98341 22.917 5.97874 22.8795 5.97145L22.7512 5.94886C22.7228 5.94886 22.6818 5.93918 22.6303 5.93487C22.5885 5.93288 22.5476 5.92303 22.5093 5.90583C22.4754 5.88855 22.4402 5.87381 22.4042 5.86172C22.3684 5.85208 22.3362 5.83187 22.3116 5.80363L22.2475 5.72295C22.2235 5.69443 22.2085 5.6592 22.2044 5.62182C22.1991 5.57829 22.197 5.53442 22.1981 5.49058C22.2005 5.42214 22.2214 5.35574 22.2586 5.29877C22.2957 5.24179 22.3476 5.19647 22.4084 5.16785C22.5679 5.07902 22.7462 5.03138 22.9279 5.02907C23.1229 5.01989 23.3167 5.06645 23.4873 5.16354C23.5632 5.1995 23.6291 5.2544 23.6789 5.32319C23.7287 5.39199 23.7608 5.47248 23.7723 5.55728H25.8944C25.9323 4.82933 25.6476 4.24878 25.0405 3.8156C24.4334 3.38242 23.7067 3.16726 22.8606 3.17013C22.0249 3.17013 21.3056 3.37668 20.7027 3.78978C20.0998 4.20288 19.7983 4.79312 19.7983 5.5605C19.7926 5.86343 19.8652 6.16253 20.0086 6.42758C20.1278 6.65285 20.2901 6.85118 20.4861 7.01065C20.7129 7.17513 20.9659 7.29816 21.2337 7.37426C21.4994 7.46412 21.7706 7.53599 22.0456 7.58942C22.2685 7.62814 22.551 7.66687 22.8932 7.7056C23.0202 7.71934 23.1463 7.74126 23.2707 7.77122C23.3674 7.79924 23.4557 7.85178 23.5273 7.92398C23.5687 7.9659 23.6009 8.01637 23.6217 8.07202C23.6426 8.12766 23.6516 8.18722 23.6482 8.24671C23.6496 8.33032 23.6285 8.4127 23.5871 8.48481C23.5457 8.55693 23.4857 8.61599 23.4137 8.65551C23.2428 8.75603 23.0481 8.80629 22.8511 8.80074C22.6531 8.80661 22.4576 8.75354 22.2885 8.64798C22.2115 8.5978 22.149 8.52743 22.1076 8.44419C22.0662 8.36094 22.0473 8.26787 22.0529 8.17464H19.6837C19.7216 9.7969 20.8082 10.608 22.9436 10.608L22.9457 10.5951ZM4.28521 21.9532V16.6743H6.28324V14.9284H4.28521V14.2442C4.28521 13.2236 4.98312 12.9271 6.37893 13.3545L6.60713 11.5192C6.03941 11.3629 5.45633 11.2723 4.86884 11.2492C4.36429 11.23 3.86043 11.3029 3.38084 11.4644C2.91742 11.6267 2.52927 11.959 2.29139 12.3971C2.02568 12.8611 1.89283 13.4571 1.89283 14.185L1.87916 14.9284H0.681396V16.6743H1.84972V21.9456L4.28521 21.9532ZM10.539 14.71C9.59646 14.693 8.6826 15.042 7.98156 15.6868C7.26507 16.338 6.90683 17.2463 6.90683 18.4117C6.88977 19.1322 7.07755 19.8423 7.44735 20.4557C7.77367 21.004 8.24559 21.4461 8.80811 21.7305C9.36208 21.9985 9.9695 22.1307 10.5822 22.1167C11.5241 22.1239 12.4351 21.7731 13.1386 21.1323C13.8558 20.4869 14.2144 19.5811 14.2144 18.4149C14.2144 17.2488 13.8509 16.3394 13.1239 15.6868C12.4124 15.0412 11.4899 14.6926 10.539 14.71ZM10.5822 16.8809C10.746 16.8855 10.9071 16.9248 11.0553 16.9962C11.2035 17.0677 11.3357 17.1698 11.4434 17.2961C11.6853 17.564 11.8073 17.9351 11.8062 18.4117C11.8052 18.8883 11.6853 19.2594 11.4434 19.5262C11.3357 19.6525 11.2035 19.7546 11.0553 19.8261C10.9071 19.8976 10.746 19.9369 10.5822 19.9415C10.4155 19.9475 10.2497 19.9152 10.0968 19.8471C9.94398 19.7789 9.80798 19.6767 9.69881 19.5477C9.45134 19.2759 9.3276 18.8972 9.3276 18.4117C9.3276 17.9262 9.45134 17.5471 9.69881 17.2746C9.80798 17.1457 9.94398 17.0434 10.0968 16.9753C10.2497 16.9072 10.4155 16.8749 10.5822 16.8809ZM17.6972 15.1102C17.4674 14.9256 17.1901 14.8135 16.8991 14.7874C16.5967 14.7487 16.2912 14.7411 15.9873 14.7648C15.7029 14.7872 15.4206 14.8322 15.1429 14.8993V16.2548C15.2906 16.2452 15.4376 16.2828 15.5636 16.3624C15.6457 16.4185 15.7042 16.5041 15.7276 16.6023C15.7507 16.7542 15.7602 16.9079 15.756 17.0616V21.9585H18.1347V18.4257C18.1347 17.9237 18.277 17.5292 18.5616 17.2423C18.854 16.9572 19.2409 16.7958 19.6448 16.7905C20.0647 16.7691 20.4793 16.8935 20.8215 17.1434L21.3063 15.1327C20.9042 14.8276 20.4095 14.6779 19.9098 14.71C19.5106 14.7048 19.1173 14.808 18.7699 15.009C18.4393 15.1951 18.1862 15.498 18.0579 15.861C18.0515 15.7167 18.016 15.5753 17.9536 15.4457C17.8911 15.3161 17.8031 15.2011 17.6951 15.108L17.6972 15.1102ZM23.1024 12.7574L22.8322 14.9284H21.6207V16.5173L22.8322 16.6743V19.1809C22.8322 19.8895 22.9675 20.4747 23.2381 20.9366C23.4838 21.3769 23.8755 21.7127 24.3423 21.8832C24.8325 22.0588 25.3499 22.1416 25.8692 22.1274C26.4622 22.111 27.0508 22.0181 27.6211 21.851L27.4224 19.9996C27.1118 20.1202 26.7854 20.1927 26.4539 20.2147C26.1515 20.2374 25.8504 20.1556 25.5989 19.9823C25.3423 19.8074 25.214 19.5205 25.214 19.1217V16.6743H27.3078V14.9284H25.2109V12.7574H23.1024Z" fill="white"/>
<path fill-rule="evenodd" clip-rule="evenodd" d="M25.5012 29.3222C14.0661 26.9329 15.7298 24.492 8.87442 27.5644C1.34185 30.9391 0.750854 25.2859 0.750854 25.2859C0.750854 25.2859 3.4219 28.5917 8.10465 26.3122C10.0312 25.3752 12.5077 22.8245 15.6141 22.8213C20.1959 22.8213 20.1212 28.2895 25.0343 26.7382C27.1963 26.0551 29.5782 25.4752 28.556 28.1916" fill="#FAE925"/>
<path fill-rule="evenodd" clip-rule="evenodd" d="M19.6491 26.8749L15.2008 26.5607L11.4708 27.2977C11.4708 27.2977 4.45668 31.0295 1.12943 25.8916C1.00114 25.6926 0.626773 25.6765 0.517407 25.5463C0.201929 25.1698 0.0557575 24.5942 0.0294676 24.775C-0.157716 26.0336 0.542645 28.4982 2.46811 29.9441C2.46811 29.9441 5.68915 32.4818 9.77143 29.9742C13.3122 27.799 14.8948 28.2895 16.4385 28.7456C19.608 29.6816 21.564 33.3424 25.8903 31.4792" fill="#F613D8"/>
<path fill-rule="evenodd" clip-rule="evenodd" d="M28.6707 28.2466C28.412 29.9119 27.1984 31.7816 23.9385 31.8322C20.9394 31.8784 19.5071 27.1396 16.2619 26.904C13.5067 26.704 12.2911 27.088 8.30236 28.7329C3.6417 30.6596 1.34186 27.4161 1.34186 27.4161C0.74771 26.7825 0.197727 25.3721 0.197727 25.3721C0.197727 25.3721 -0.23553 24.1888 0.375446 24.8138C2.52385 27.0127 5.04768 29.2847 10.9713 26.563C21.5367 21.7134 18.4376 30.0926 25.8713 27.7077C27.8168 27.0837 28.8957 26.8029 28.6707 28.2466Z" fill="url(#paint0_linear_214_4)"/>
<path fill-rule="evenodd" clip-rule="evenodd" d="M25.0048 23.4132C25.4811 23.3917 25.8776 23.7843 25.9365 24.2835C25.9954 24.7827 25.7083 25.2668 25.2561 25.3959C24.7482 25.5411 24.2213 25.1872 24.1372 24.5804C24.0531 23.9737 24.4685 23.4379 25.0048 23.4132Z" fill="#FADD2E"/>
<path fill-rule="evenodd" clip-rule="evenodd" d="M11.8126 30.2808C11.8126 30.2808 10.6379 31.5266 11.9177 31.8945C13.3069 32.2925 14.0672 29.6246 18.1516 31.7869C18.1526 31.7826 14.6024 27.7775 11.8126 30.2808Z" fill="#8006EC"/>
<defs>
<linearGradient id="paint0_linear_214_4" x1="0.0252654" y1="29.5365" x2="28.6909" y2="26.591" gradientUnits="userSpaceOnUse">
<stop stop-color="#5209EA"/>
<stop offset="1" stop-color="#F000EE"/>
</linearGradient>
</defs>
</svg>
