<svg width="12" height="16" viewBox="0 0 12 16" fill="none" xmlns="http://www.w3.org/2000/svg">
<path fill-rule="evenodd" clip-rule="evenodd" d="M11.1709 5.64261C11.1709 8.79099 5.58572 16 5.58572 16C5.58572 16 0 8.79099 0 5.64261C0.0151518 4.14077 0.610287 2.7057 1.65611 1.64917C2.70194 0.592642 4.11396 0 5.58543 0C7.05689 0 8.46892 0.592642 9.51474 1.64917C10.5606 2.7057 11.1557 4.14077 11.1709 5.64261Z" fill="white"/>
<path fill-rule="evenodd" clip-rule="evenodd" d="M7.87729 5.01996C7.87729 5.48241 7.74295 5.93447 7.49125 6.319C7.23954 6.70352 6.88179 7.00323 6.46321 7.18022C6.04464 7.35722 5.58404 7.40357 5.13967 7.31339C4.69529 7.22322 4.28709 7.00057 3.96667 6.67361C3.64626 6.34665 3.42803 5.93006 3.33956 5.47651C3.2511 5.02296 3.29638 4.55282 3.46969 4.12554C3.64299 3.69826 3.93653 3.33302 4.31319 3.07601C4.68985 2.819 5.13272 2.68176 5.58579 2.68164C5.88671 2.68148 6.18471 2.74185 6.46276 2.8593C6.74081 2.97675 6.99346 3.14897 7.20626 3.36613C7.41907 3.58328 7.58787 3.84112 7.70301 4.12489C7.81815 4.40866 7.87737 4.71281 7.87729 5.01996Z" fill="#0094EC"/>
</svg>
