<svg width="76" height="76" viewBox="0 0 76 76" fill="none" xmlns="http://www.w3.org/2000/svg">
<g opacity="0.85" clip-path="url(#clip0_196_202)">
<path fill-rule="evenodd" clip-rule="evenodd" d="M12.2873 0H63.6942C66.9532 0.00487872 70.0776 1.30041 72.3838 3.60314C74.69 5.90587 75.9902 9.02832 76 12.2873V63.6942C75.9902 66.9549 74.6906 70.0792 72.3849 72.3849C70.0792 74.6906 66.9549 75.9902 63.6942 76H12.2873C9.02832 75.9902 5.90587 74.69 3.60314 72.3838C1.30041 70.0776 0.00487872 66.9532 0 63.6942L0 12.2873C0.00976257 9.03152 1.30745 5.91186 3.60966 3.60966C5.91186 1.30745 9.03152 0.00976257 12.2873 0V0Z" fill="#EDF3FA"/>
<path fill-rule="evenodd" clip-rule="evenodd" d="M47.6133 60.2893H67.3212V65.2671H47.6133V60.2893Z" fill="#1992F8"/>
<path fill-rule="evenodd" clip-rule="evenodd" d="M54.4787 52.3691H60.5483V59.2715H54.4787V52.3691Z" fill="#1992F8"/>
<path fill-rule="evenodd" clip-rule="evenodd" d="M57.458 38.8606C60.5298 38.8606 63.0095 42.21 63.0095 46.2626C63.0095 50.3152 60.5298 53.6646 57.458 53.6646C54.3862 53.6646 51.9065 50.3152 51.9065 46.2626C51.9065 42.21 54.3862 38.8606 57.458 38.8606Z" fill="#1992F8"/>
<path fill-rule="evenodd" clip-rule="evenodd" d="M49.3898 67.062H65.5262V65.8777H49.3898V67.062Z" fill="#1992F8"/>
<path d="M9.75216 9.03052H46.7621V57.8097H8.62335V9.03052H9.75216ZM44.412 11.3066H10.8995V55.5151H44.412V11.3066Z" fill="#1992F8"/>
<path fill-rule="evenodd" clip-rule="evenodd" d="M23.5568 36.2883C25.1196 36.2883 26.6473 36.7518 27.9468 37.62C29.2462 38.4882 30.2589 39.7223 30.857 41.1661C31.4551 42.61 31.6115 44.1987 31.3066 45.7315C31.0018 47.2643 30.2492 48.6722 29.1441 49.7773C28.0391 50.8823 26.6311 51.6349 25.0984 51.9398C23.5656 52.2446 21.9769 52.0882 20.533 51.4901C19.0892 50.8921 17.8551 49.8793 16.9869 48.5799C16.1186 47.2805 15.6552 45.7528 15.6552 44.19C15.6552 42.0943 16.4877 40.0845 17.9695 38.6027C19.4514 37.1208 21.4612 36.2883 23.5568 36.2883ZM23.5568 37.1766C24.9492 37.1729 26.3113 37.5827 27.4705 38.3539C28.6297 39.1252 29.5339 40.2233 30.0684 41.5089C30.6029 42.7946 30.7437 44.21 30.473 45.5758C30.2023 46.9415 29.5322 48.1962 28.5476 49.1807C27.5631 50.1653 26.3084 50.8354 24.9426 51.1061C23.5769 51.3769 22.1615 51.236 20.8758 50.7015C19.5901 50.167 18.4921 49.2628 17.7208 48.1036C16.9496 46.9444 16.5398 45.5823 16.5435 44.19C16.5483 42.3314 17.2888 40.5503 18.603 39.2361C19.9172 37.9219 21.6983 37.1815 23.5568 37.1766ZM23.5568 38.0833C24.7646 38.0833 25.9453 38.4415 26.9495 39.1125C27.9537 39.7835 28.7365 40.7372 29.1987 41.853C29.6608 42.9689 29.7818 44.1967 29.5462 45.3813C29.3105 46.5659 28.7289 47.654 27.8749 48.508C27.0209 49.362 25.9328 49.9436 24.7482 50.1793C23.5636 50.4149 22.3358 50.294 21.2199 49.8318C20.1041 49.3696 19.1504 48.5869 18.4794 47.5826C17.8083 46.5784 17.4502 45.3977 17.4502 44.19C17.4502 42.5704 18.0936 41.0171 19.2388 39.8719C20.384 38.7267 21.9373 38.0833 23.5568 38.0833ZM23.5568 40.2299C24.3453 40.2262 25.1171 40.4569 25.7742 40.8927C26.4313 41.3284 26.9441 41.9496 27.2475 42.6774C27.5509 43.4051 27.6313 44.2066 27.4783 44.9801C27.3254 45.7536 26.9461 46.4642 26.3886 47.0217C25.8311 47.5792 25.1204 47.9585 24.347 48.1114C23.5735 48.2644 22.772 48.184 22.0442 47.8806C21.3165 47.5772 20.6953 47.0644 20.2596 46.4073C19.8238 45.7502 19.5931 44.9784 19.5968 44.19C19.5968 43.1397 20.014 42.1324 20.7567 41.3898C21.4993 40.6471 22.5066 40.2299 23.5568 40.2299Z" fill="#1992F8"/>
<path fill-rule="evenodd" clip-rule="evenodd" d="M21.0587 43.8384H26.055V44.5601H21.0587V43.8384Z" fill="#1992F8"/>
<path fill-rule="evenodd" clip-rule="evenodd" d="M21.7804 42.4133H25.3704V43.135H21.7804V42.4133Z" fill="#1992F8"/>
<path fill-rule="evenodd" clip-rule="evenodd" d="M21.7989 45.2817H25.4074V46.0034H21.7989V45.2817Z" fill="#1992F8"/>
<path fill-rule="evenodd" clip-rule="evenodd" d="M17.6722 17.6907H39.0455V20.3184H17.6722V17.6907Z" fill="#1992F8"/>
<path fill-rule="evenodd" clip-rule="evenodd" d="M17.6353 23.1682H39.0085V25.7959H17.6353V23.1682Z" fill="#1992F8"/>
<path fill-rule="evenodd" clip-rule="evenodd" d="M17.6353 28.8123H39.0085V31.44H17.6353V28.8123Z" fill="#1992F8"/>
</g>
<defs>
<clipPath id="clip0_196_202">
<rect width="76" height="76" fill="white"/>
</clipPath>
</defs>
</svg>
