<svg width="16" height="23" viewBox="0 0 16 23" fill="none" xmlns="http://www.w3.org/2000/svg">
<path fill-rule="evenodd" clip-rule="evenodd" d="M16 8.0819C16 12.5913 8.00042 22.9168 8.00042 22.9168C8.00042 22.9168 0 12.5913 0 8.0819C0.0217019 5.93082 0.874114 3.87538 2.37205 2.36211C3.86998 0.848841 5.89243 0 8 0C10.1076 0 12.13 0.848841 13.628 2.36211C15.1259 3.87538 15.9783 5.93082 16 8.0819V8.0819Z" fill="white"/>
<path fill-rule="evenodd" clip-rule="evenodd" d="M11.2825 7.19011C11.2825 7.85248 11.0901 8.49997 10.7296 9.05072C10.3691 9.60147 9.85668 10.0307 9.25715 10.2843C8.65763 10.5378 7.99792 10.6042 7.36144 10.475C6.72496 10.3458 6.14029 10.0269 5.68136 9.55864C5.22244 9.09034 4.90986 8.49365 4.78315 7.84403C4.65645 7.19442 4.72131 6.52104 4.96953 5.90904C5.21775 5.29705 5.63819 4.77392 6.17768 4.4058C6.71717 4.03769 7.35149 3.84111 8.00042 3.84094C8.43143 3.84072 8.85825 3.92718 9.2565 4.0954C9.65475 4.26362 10.0166 4.5103 10.3214 4.82133C10.6262 5.13237 10.868 5.50166 11.0329 5.90811C11.1978 6.31455 11.2827 6.75019 11.2825 7.19011Z" fill="#0094EC"/>
</svg>
