<svg width="17" height="24" viewBox="0 0 17 24" fill="none" xmlns="http://www.w3.org/2000/svg">
<path d="M7.53922 5.524C7.54514 5.50565 7.70864 4.95674 7.12159 4.16397C6.53453 3.3712 6.00085 3.39305 5.97797 3.39392L5.92969 2.82141C5.96442 2.82141 6.78951 2.75761 7.57056 3.81959C8.3516 4.88157 8.07883 5.68221 8.06951 5.7163L7.53922 5.524Z" fill="white"/>
<path d="M8.91661 5.55288C8.92763 5.51792 9.19701 4.61152 8.23468 3.30392C7.27235 1.99633 6.35323 2.03654 6.34222 2.03741L6.29562 1.46403C6.3456 1.46403 7.52818 1.38536 8.68535 2.96042C9.84251 4.53547 9.46724 5.6936 9.44776 5.7408L8.91661 5.55288Z" fill="white"/>
<path d="M10.4431 5.46549C10.4431 5.45763 10.6126 4.32135 9.27496 2.50156C7.93736 0.681766 6.86576 0.578627 6.85559 0.578627L6.88863 0C6.94623 0 8.21691 0.105761 9.72648 2.15718C11.236 4.2086 11.0073 5.52056 10.9972 5.57562L10.4431 5.46549Z" fill="white"/>
<path fill-rule="evenodd" clip-rule="evenodd" d="M1.01638 4.02063C2.38787 5.85615 3.7026 7.61214 5.02749 9.38386C4.4972 9.88557 4.59123 10.4764 4.87925 11.0017C5.38752 11.9344 5.91019 12.8775 6.54807 13.7183C7.35623 14.7847 8.2762 15.7619 9.16822 16.7574C9.39186 17.0065 9.68242 17.1945 9.96197 17.3832C10.0884 17.4723 10.2352 17.5257 10.3878 17.5381C10.5404 17.5506 10.6936 17.5216 10.832 17.454C10.8774 17.4405 10.9254 17.4388 10.9717 17.449C11.0179 17.4592 11.061 17.4811 11.0971 17.5126C12.3396 19.1617 13.5755 20.816 14.805 22.4755C14.8186 22.5036 14.8299 22.5329 14.8388 22.5629C14.5296 22.8304 14.145 22.9125 13.7605 22.9632C12.5262 23.1188 11.3699 22.805 10.2585 22.2806C8.64131 21.5167 7.27914 20.3874 6.05081 19.0815C4.06601 16.9663 2.37601 14.6291 1.14514 11.9623C0.518274 10.6049 0.0845488 9.18632 0.0100022 7.6707C-0.0365894 6.71973 0.071842 5.79147 0.477612 4.92528C0.61654 4.63247 0.810531 4.35976 1.01638 4.02063Z" fill="white"/>
<path fill-rule="evenodd" clip-rule="evenodd" d="M1.41876 3.77598C1.94482 3.37129 2.42938 2.97709 2.93511 2.61611C3.27395 2.37312 3.66109 2.47713 3.94572 2.85385C4.55508 3.6609 5.15993 4.46969 5.76025 5.28024C6.14597 5.79244 6.52972 6.30493 6.91149 6.81771C7.28761 7.32466 7.23255 7.70575 6.7319 8.09296L5.407 9.11386C4.08041 7.34214 2.76314 5.57654 1.41876 3.77598Z" fill="white"/>
<path fill-rule="evenodd" clip-rule="evenodd" d="M15.2404 22.2885L11.3377 17.0607C11.8714 16.6543 12.3788 16.2426 12.9117 15.872C13.0518 15.7807 13.2204 15.7479 13.3832 15.7804C13.5459 15.8129 13.6905 15.9082 13.7876 16.0468C14.8211 17.4115 15.8464 18.7823 16.8635 20.1593C16.9678 20.2987 17.0154 20.4746 16.9962 20.6496C16.9771 20.8246 16.8927 20.9851 16.761 21.0971C16.2764 21.5018 15.7681 21.8742 15.2404 22.2885Z" fill="white"/>
</svg>
