<svg width="16" height="16" viewBox="0 0 16 16" fill="none" xmlns="http://www.w3.org/2000/svg">
<path d="M12.5752 9.91041C12.4342 9.74462 12.2591 9.61151 12.062 9.52023C11.865 9.42896 11.6506 9.3817 11.4336 9.3817C11.2166 9.3817 11.0021 9.42896 10.8051 9.52023C10.608 9.61151 10.4329 9.74462 10.2919 9.91041L9.23816 10.9694C9.15035 10.8812 9.06253 10.8812 8.97472 10.7929C8.8869 10.7047 8.71127 10.7047 8.62345 10.6164C7.5629 9.91164 6.61534 9.04865 5.81335 8.05713C5.44691 7.63703 5.15037 7.16022 4.9352 6.64511L5.72554 5.85084L5.98898 5.58609C6.15471 5.4355 6.28717 5.25167 6.37783 5.04646C6.4685 4.84125 6.51534 4.61922 6.51534 4.39469C6.51534 4.17016 6.4685 3.94813 6.37783 3.74292C6.28717 3.53771 6.15471 3.35388 5.98898 3.2033L5.11083 2.32078C5.02301 2.23253 4.9352 2.05603 4.75957 1.96777C4.57727 1.74032 4.37118 1.53321 4.14486 1.35001C4.00212 1.18629 3.82672 1.05454 3.63006 0.963323C3.43339 0.872103 3.21984 0.823445 3.00325 0.820505C2.78667 0.823445 2.57312 0.872103 2.37645 0.963323C2.17979 1.05454 2.00439 1.18629 1.86165 1.35001L0.720049 2.49728C0.498815 2.69892 0.320845 2.9438 0.19703 3.21693C0.0732143 3.49007 0.00615694 3.78573 -3.92571e-05 4.08581C-0.0571084 4.9618 0.0933689 5.8389 0.439039 6.64511C1.05425 8.2132 1.91389 9.6729 2.98569 10.9694C4.43009 12.7112 6.22599 14.125 8.25463 15.1172C9.1928 15.5796 10.2025 15.8781 11.2404 15.9998H11.416C11.7841 16.0136 12.1503 15.941 12.4857 15.7879C12.821 15.6347 13.1163 15.4051 13.3479 15.1172C13.5302 14.8898 13.7363 14.6827 13.9626 14.4995L14.4017 14.0582C14.7165 13.7573 14.905 13.3469 14.9286 12.911C14.9257 12.6933 14.8773 12.4787 14.7865 12.281C14.6957 12.0834 14.5646 11.9071 14.4017 11.7637L12.5752 9.91041ZM13.8046 13.4405C13.7168 13.617 13.5411 13.7052 13.3655 13.8817C13.1392 14.0974 12.9334 14.3337 12.7508 14.5877C12.5961 14.76 12.4061 14.8966 12.1938 14.988C11.9816 15.0794 11.7522 15.1235 11.5214 15.1172H11.3457C10.4274 15.0129 9.5351 14.7439 8.71127 14.323C6.79256 13.392 5.08786 12.0695 3.70578 10.4399C2.66707 9.23368 1.83604 7.86163 1.24694 6.38035C0.972625 5.67871 0.847006 4.92727 0.878117 4.17406C0.893516 3.80546 1.05098 3.45733 1.31719 3.2033L2.4588 2.05603C2.52449 1.97867 2.60499 1.91537 2.6955 1.86989C2.78601 1.82441 2.8847 1.79767 2.98569 1.79127C3.08977 1.77764 3.19552 1.79557 3.28939 1.84274C3.38327 1.88991 3.46099 1.96418 3.51258 2.05603C3.73891 2.23923 3.945 2.44634 4.12729 2.67379C4.22736 2.7828 4.3464 2.87252 4.47856 2.93854L5.35671 3.82106C5.43851 3.88271 5.5049 3.96265 5.55063 4.05456C5.59635 4.14647 5.62016 4.24781 5.62016 4.35057C5.62016 4.45332 5.59635 4.55466 5.55063 4.64657C5.5049 4.73848 5.43851 4.81842 5.35671 4.88007C5.29102 5.01288 5.20174 5.13251 5.09327 5.23308C4.82067 5.51948 4.52714 5.78498 4.21511 6.02734C4.10998 6.12679 4.03702 6.25569 4.0057 6.39732C3.97438 6.53896 3.98615 6.68678 4.03948 6.82161C4.34235 7.4844 4.72581 8.10691 5.18108 8.67489C6.04182 9.72485 7.04719 10.6461 8.16681 11.4107C8.34244 11.4989 8.43026 11.5872 8.60589 11.6754C8.78152 11.7637 8.86934 11.7637 8.95715 11.8519C9.06019 11.9221 9.18463 11.9534 9.30841 11.9402C9.40952 11.9343 9.50837 11.9078 9.59895 11.8623C9.68953 11.8167 9.76995 11.7532 9.83531 11.6754L10.9769 10.5282C11.0423 10.4504 11.1227 10.3869 11.2133 10.3413C11.3039 10.2958 11.4027 10.2693 11.5038 10.2634C11.6048 10.2698 11.7035 10.2966 11.794 10.342C11.8845 10.3875 11.965 10.4508 12.0307 10.5282L13.8748 12.3815C13.9429 12.4539 13.9953 12.5397 14.0289 12.6335C14.0624 12.7272 14.0763 12.827 14.0697 12.9264C14.0631 13.0258 14.0362 13.1228 13.9905 13.2112C13.9449 13.2997 13.8816 13.3777 13.8046 13.4405ZM8.27219 3.2033C8.27358 3.14085 8.28994 3.07967 8.31987 3.02493C8.34981 2.9702 8.39244 2.92353 8.44415 2.88888C8.49586 2.85424 8.55513 2.83264 8.61692 2.82592C8.67871 2.8192 8.7412 2.82756 8.79908 2.85029C9.86899 3.04235 10.8519 3.56711 11.6092 4.35057C12.3888 5.1116 12.9109 6.0994 13.102 7.17461C13.102 7.43937 13.0142 7.70412 12.7508 7.70412H12.663C12.4873 7.70412 12.2239 7.52762 12.2239 7.35112C12.0723 6.44678 11.6441 5.61239 10.9989 4.96392C10.3536 4.31545 9.52332 3.88514 8.62345 3.73281C8.56132 3.73141 8.50044 3.71497 8.44597 3.68489C8.39151 3.6548 8.34507 3.61196 8.31059 3.55999C8.27612 3.50802 8.25463 3.44846 8.24794 3.38637C8.24126 3.32427 8.24957 3.26147 8.27219 3.2033ZM15.5609 7.52762C15.2974 7.52762 15.034 7.35112 15.034 7.17461C14.7879 5.59606 14.0501 4.13657 12.9266 3.00595C11.8032 1.87533 10.3519 1.13182 8.78152 0.882281C8.71939 0.880885 8.6585 0.864447 8.60404 0.834362C8.54958 0.804277 8.50314 0.761433 8.46866 0.709465C8.43419 0.657497 8.4127 0.597938 8.40601 0.535843C8.39933 0.473748 8.40764 0.410948 8.43026 0.352772C8.43165 0.290329 8.448 0.229145 8.47794 0.174411C8.50788 0.119676 8.55051 0.073006 8.60222 0.0383606C8.65393 0.00371522 8.7132 -0.0178832 8.77498 -0.0246021C8.83677 -0.0313209 8.89926 -0.022962 8.95715 -0.000234401C10.7131 0.301222 12.3364 1.13226 13.6114 2.38256C14.8942 3.63786 15.7331 5.28056 16 7.05989C15.9981 7.17886 15.952 7.29284 15.8708 7.37939C15.7895 7.46595 15.679 7.51882 15.5609 7.52762Z" fill="#1992F8"/>
</svg>
