<svg width="18" height="18" viewBox="0 0 18 18" fill="none" xmlns="http://www.w3.org/2000/svg">
<path d="M1.54007 9.93721H7.86567V16.4052C7.87735 16.7001 8.00015 16.9789 8.20837 17.1833C8.41658 17.3877 8.69408 17.5019 8.98276 17.5019C9.27145 17.5019 9.54894 17.3877 9.75716 17.1833C9.96537 16.9789 10.0882 16.7001 10.0999 16.4052V9.93908H16.4255C16.576 9.9453 16.7261 9.92038 16.867 9.8658C17.0078 9.81122 17.1364 9.72811 17.2451 9.62146C17.3537 9.51481 17.4401 9.38682 17.4992 9.24517C17.5582 9.10352 17.5887 8.95113 17.5887 8.79716C17.5887 8.64319 17.5582 8.4908 17.4992 8.34915C17.4401 8.20751 17.3537 8.07951 17.2451 7.97286C17.1364 7.86621 17.0078 7.7831 16.867 7.72852C16.7261 7.67394 16.576 7.64902 16.4255 7.65525H10.0999V1.18907C10.1059 1.03523 10.0816 0.881709 10.0282 0.737735C9.97477 0.593761 9.89347 0.4623 9.78914 0.351245C9.68481 0.24019 9.5596 0.15183 9.42103 0.0914718C9.28246 0.0311132 9.13339 0 8.98276 0C8.83214 0 8.68306 0.0311132 8.54449 0.0914718C8.40592 0.15183 8.28072 0.24019 8.17638 0.351245C8.07205 0.4623 7.99075 0.593761 7.93735 0.737735C7.88396 0.881709 7.85958 1.03523 7.86567 1.18907V7.65338H1.54007C1.25162 7.66531 0.978871 7.79084 0.778912 8.00369C0.578952 8.21653 0.467285 8.50019 0.467285 8.79529C0.467285 9.09039 0.578952 9.37405 0.778912 9.5869C0.978871 9.79974 1.25162 9.92527 1.54007 9.93721V9.93721Z" fill="#54595F" fill-opacity="0.6"/>
</svg>
