<svg width="77" height="77" viewBox="0 0 77 77" fill="none" xmlns="http://www.w3.org/2000/svg">
<g opacity="0.85" clip-path="url(#clip0_195_189)">
<path fill-rule="evenodd" clip-rule="evenodd" d="M12.449 0H64.5323C67.8341 0.00494292 70.9997 1.31752 73.3362 3.65055C75.6728 5.98358 76.9901 9.14711 77 12.449V64.5323C76.9901 67.8359 75.6734 71.0013 73.3374 73.3374C71.0013 75.6734 67.8359 76.9901 64.5323 77H12.449C9.14711 76.9901 5.98358 75.6728 3.65055 73.3362C1.31752 70.9997 0.00494292 67.8341 0 64.5323L0 12.449C0.00989103 9.15035 1.32465 5.98965 3.65715 3.65715C5.98965 1.32465 9.15035 0.00989103 12.449 0V0Z" fill="#EDF3FA"/>
<path d="M44.7901 37.0282V10.4054H10.4429L9.80545 55.7579H40.1217L37.8157 58.0828H9.28049H8.11809V56.9204V9.24297V8.08057H9.28049H45.9525H47.1149V9.24297V39.353L44.7901 37.0282Z" fill="#1992F8"/>
<path fill-rule="evenodd" clip-rule="evenodd" d="M32.4161 26.473C33.1473 22.7233 35.1909 21.1296 37.2345 21.1296C39.2781 21.1296 41.3029 22.7983 42.0341 26.473H32.4161Z" fill="#1992F8"/>
<path fill-rule="evenodd" clip-rule="evenodd" d="M37.1595 14.4551C37.5462 14.4719 37.9257 14.5649 38.2764 14.7286C38.6271 14.8923 38.9421 15.1236 39.2033 15.4092C39.4645 15.6948 39.6669 16.0291 39.7987 16.393C39.9306 16.7569 39.9894 17.1432 39.9718 17.5298C39.9718 18.2757 39.6755 18.991 39.1481 19.5184C38.6207 20.0458 37.9053 20.3421 37.1595 20.3421C36.4136 20.3421 35.6983 20.0458 35.1709 19.5184C34.6435 18.991 34.3472 18.2757 34.3472 17.5298C34.3115 16.7521 34.5854 15.9918 35.109 15.4156C35.6326 14.8393 36.3631 14.4939 37.1407 14.4551H37.1595Z" fill="#1992F8"/>
<path fill-rule="evenodd" clip-rule="evenodd" d="M13.1239 26.473C13.8551 22.7233 15.8987 21.1296 17.9423 21.1296C19.9859 21.1296 22.0107 22.7983 22.7419 26.473H13.1239Z" fill="#1992F8"/>
<path fill-rule="evenodd" clip-rule="evenodd" d="M17.886 14.4551C18.6537 14.5081 19.37 14.8597 19.8816 15.4344C20.3932 16.0091 20.6595 16.7612 20.6233 17.5298C20.6645 18.3016 20.4006 19.0586 19.8884 19.6373C19.3763 20.2161 18.6571 20.5703 17.886 20.6233C17.4993 20.6041 17.1202 20.5088 16.7704 20.3429C16.4206 20.1769 16.1069 19.9436 15.8474 19.6562C15.5879 19.3688 15.3877 19.0331 15.2581 18.6682C15.1286 18.3033 15.0723 17.9165 15.0925 17.5298C15.0568 16.7521 15.3308 15.9918 15.8543 15.4156C16.3779 14.8393 17.1084 14.4939 17.886 14.4551Z" fill="#1992F8"/>
<path fill-rule="evenodd" clip-rule="evenodd" d="M22.7794 26.473C23.5106 22.7233 25.5542 21.1296 27.5978 21.1296C29.6413 21.1296 31.6662 22.7983 32.3974 26.473H22.7794Z" fill="#1992F8"/>
<path fill-rule="evenodd" clip-rule="evenodd" d="M27.5228 14.4551C27.9094 14.4719 28.289 14.5649 28.6397 14.7286C28.9904 14.8923 29.3054 15.1236 29.5666 15.4092C29.8278 15.6948 30.0301 16.0291 30.162 16.393C30.2939 16.7569 30.3527 17.1432 30.335 17.5298C30.335 18.2757 30.0387 18.991 29.5113 19.5184C28.9839 20.0458 28.2686 20.3421 27.5228 20.3421C26.7769 20.3421 26.0616 20.0458 25.5342 19.5184C25.0068 18.991 24.7105 18.2757 24.7105 17.5298C24.6748 16.7521 24.9487 15.9918 25.4723 15.4156C25.9958 14.8393 26.7264 14.4939 27.504 14.4551H27.5228Z" fill="#1992F8"/>
<path d="M62.9949 67.7007L51.8583 56.5828L40.7967 67.6444L36.1471 62.9948L47.2087 51.9144L36.1471 40.8528L40.8529 36.147L51.9145 47.2086L62.9949 36.147L67.6445 40.7966L56.5829 51.8582L67.7008 62.9948L62.9949 67.7007Z" fill="#1992F8"/>
</g>
<defs>
<clipPath id="clip0_195_189">
<rect width="77" height="77" fill="white"/>
</clipPath>
</defs>
</svg>
